<?xml version="1.0" encoding="UTF-8" standalone="no"?>
<!-- Created with Inkscape (http://www.inkscape.org/) -->

<svg
   xmlns:dc="http://purl.org/dc/elements/1.1/"
   xmlns:cc="http://creativecommons.org/ns#"
   xmlns:rdf="http://www.w3.org/1999/02/22-rdf-syntax-ns#"
   xmlns:svg="http://www.w3.org/2000/svg"
   xmlns="http://www.w3.org/2000/svg"
   xmlns:sodipodi="http://sodipodi.sourceforge.net/DTD/sodipodi-0.dtd"
   xmlns:inkscape="http://www.inkscape.org/namespaces/inkscape"
   version="1.1"
   id="svg2"
   xml:space="preserve"
   width="406.41882"
   height="78.332878"
   viewBox="0 0 406.41882 78.332878"
   sodipodi:docname="Mosaic.svg"
   inkscape:version="0.92.1 r15371"><metadata
     id="metadata8"><rdf:RDF><cc:Work
         rdf:about=""><dc:format>image/svg+xml</dc:format><dc:type
           rdf:resource="http://purl.org/dc/dcmitype/StillImage" /><dc:title></dc:title></cc:Work></rdf:RDF></metadata><defs
     id="defs6" /><sodipodi:namedview
     pagecolor="#ffffff"
     bordercolor="#666666"
     borderopacity="1"
     objecttolerance="10"
     gridtolerance="10"
     guidetolerance="10"
     inkscape:pageopacity="0"
     inkscape:pageshadow="2"
     inkscape:window-width="640"
     inkscape:window-height="480"
     id="namedview4"
     showgrid="false"
     fit-margin-top="0"
     fit-margin-left="0"
     fit-margin-right="0"
     fit-margin-bottom="0"
     inkscape:zoom="0.22348485"
     inkscape:cx="348"
     inkscape:cy="468"
     inkscape:window-x="0"
     inkscape:window-y="0"
     inkscape:window-maximized="0"
     inkscape:current-layer="g10" /><g
     id="g10"
     inkscape:groupmode="layer"
     inkscape:label="A9Rhfii1t_1dkhkji_ajg"
     transform="matrix(1.3333333,0,0,-1.3333333,-59.999999,138.33288)"><path
       d="M 84.176233,64.583221 H 64.589748 v 19.586484 h 19.586485 z"
       style="fill:#ffffff;fill-opacity:1;fill-rule:nonzero;stroke:none;stroke-width:3.26387"
       id="path12"
       inkscape:connector-curvature="0" /><path
       d="M 64.583221,84.166441 H 45 v -19.58322 h 19.583221 z"
       style="fill:#ed874e;fill-opacity:1;fill-rule:nonzero;stroke:none;stroke-width:3.26387"
       id="path14"
       inkscape:connector-curvature="0" /><path
       d="M 84.169705,103.74966 H 64.586484 V 84.166441 h 19.583221 z"
       style="fill:#f8ce7f;fill-opacity:1;fill-rule:nonzero;stroke:none;stroke-width:3.26387"
       id="path16"
       inkscape:connector-curvature="0" /><path
       d="m 84.169705,64.583221 h 19.583225 v 19.58322 H 84.169705 Z"
       style="fill:#3fbfbb;fill-opacity:1;fill-rule:nonzero;stroke:none;stroke-width:3.26387"
       id="path18"
       inkscape:connector-curvature="0" /><path
       d="m 64.583221,45 h 19.58322 v 19.583221 h -19.58322 z"
       style="fill:#508eaa;fill-opacity:1;fill-rule:nonzero;stroke:none;stroke-width:3.26387"
       id="path20"
       inkscape:connector-curvature="0" /><g
       id="g22"
       transform="matrix(3.2638701,0,0,3.2638701,160.90264,54.684229)"><path
         d="M 0,0 H -1.357 V 9.741 L -5.738,3.298 h -0.069 l -4.381,6.426 V 0 h -1.322 v 12.026 h 1.374 l 4.381,-6.563 4.381,6.563 H 0 Z"
         style="fill:#424143;fill-opacity:1;fill-rule:nonzero;stroke:none"
         id="path24"
         inkscape:connector-curvature="0" /></g><g
       id="g26"
       transform="matrix(3.2638701,0,0,3.2638701,246.52635,65.22555)"><path
         d="m 0,0 c 0,-2.062 -1.718,-3.401 -4.105,-3.401 -1.907,0 -3.471,0.636 -4.914,1.924 l 0.842,0.997 c 1.254,-1.135 2.456,-1.702 4.124,-1.702 1.614,0 2.679,0.86 2.679,2.045 v 0.034 c 0,1.117 -0.602,1.752 -3.126,2.285 -2.767,0.602 -4.038,1.494 -4.038,3.47 v 0.034 c 0,1.89 1.667,3.282 3.952,3.282 1.752,0 3.006,-0.498 4.226,-1.478 L -1.151,6.443 c -1.116,0.91 -2.233,1.305 -3.47,1.305 -1.563,0 -2.56,-0.858 -2.56,-1.941 V 5.772 c 0,-1.133 0.619,-1.769 3.265,-2.335 C -1.237,2.852 0,1.873 0,0.034 Z"
         style="fill:#424143;fill-opacity:1;fill-rule:nonzero;stroke:none"
         id="path28"
         inkscape:connector-curvature="0" /></g><path
       d="m 304.67677,54.683903 h -4.42907 v 39.251301 h 4.42907 z"
       style="fill:#424143;fill-opacity:1;fill-rule:nonzero;stroke:none;stroke-width:3.26387"
       id="path30"
       inkscape:connector-curvature="0" /><g
       id="g32"
       transform="matrix(3.2638701,0,0,3.2638701,190.34079,94.60952)"><path
         d="m 0,0 c -3.659,0 -6.149,-2.904 -6.149,-6.219 v -0.035 c 0,-3.315 2.456,-6.184 6.115,-6.184 3.66,0 6.151,2.904 6.151,6.219 v 0.034 C 6.117,-2.869 3.66,0 0,0 m 4.708,-6.254 c 0,-2.731 -1.959,-4.931 -4.708,-4.931 -2.748,0 -4.741,2.234 -4.741,4.966 v 0.034 c 0,2.731 1.959,4.93 4.707,4.93 2.749,0 4.742,-2.232 4.742,-4.964 z"
         style="fill:#424143;fill-opacity:1;fill-rule:nonzero;stroke:none"
         id="path34"
         inkscape:connector-curvature="0" /></g><g
       id="g36"
       transform="matrix(3.2638701,0,0,3.2638701,270.08007,94.21655)"><path
         d="m 0,0 -5.48,-12.112 h 1.391 l 1.426,3.178 h 6.546 l 1.408,-3.178 h 1.46 L 1.271,0 Z M -2.13,-7.714 0.618,-1.58 3.35,-7.714 Z"
         style="fill:#424143;fill-opacity:1;fill-rule:nonzero;stroke:none"
         id="path38"
         inkscape:connector-curvature="0" /></g><g
       id="g40"
       transform="matrix(3.2638701,0,0,3.2638701,334.22589,58.104438)"><path
         d="M 0,0 C -2.646,0 -4.656,2.182 -4.656,4.965 V 5 c 0,2.765 1.993,4.93 4.656,4.93 1.632,0 2.765,-0.687 3.779,-1.649 l 0.929,0.997 c -1.204,1.133 -2.509,1.907 -4.691,1.907 -3.539,0 -6.081,-2.818 -6.081,-6.22 V 4.931 c 0,-3.453 2.56,-6.185 6.03,-6.185 2.181,0 3.555,0.842 4.81,2.113 V 0.86 L 3.883,1.736 C 2.732,0.636 1.649,0 0,0"
         style="fill:#424143;fill-opacity:1;fill-rule:nonzero;stroke:none"
         id="path42"
         inkscape:connector-curvature="0" /></g></g></svg>